<svg viewBox="0 0 180 225" xmlns="http://www.w3.org/2000/svg" xmlns:xlink="http://www.w3.org/1999/xlink"><linearGradient id="a" gradientUnits="userSpaceOnUse" x1="39.61" x2="140.37" y1="140.37" y2="39.61"><stop offset=".21" stop-color="#24272a"/><stop offset=".42" stop-color="#24272a" stop-opacity="0"/><stop offset=".59" stop-color="#24272a" stop-opacity="0"/><stop offset=".81" stop-color="#24272a"/></linearGradient><g fill="#24272a"><path d="m58.6 162.38v26.24a.38.38 0 0 1 -.37.38h-2.76a3.73 3.73 0 0 1 -3.14-1.71l-12.4-19.16.43 9.57v10.92a.38.38 0 0 1 -.36.38h-3.6a.38.38 0 0 1 -.38-.38v-26.24a.38.38 0 0 1 .38-.38h2.71a3.75 3.75 0 0 1 3.15 1.71l12.39 19.12-.39-9.53v-10.92a.38.38 0 0 1 .38-.38h3.61a.38.38 0 0 1 .35.38z"/><path d="m95.51 189h-3.83a.37.37 0 0 1 -.34-.51l10.11-26.13a.56.56 0 0 1 .55-.36h4.78a.55.55 0 0 1 .52.36l10.12 26.13a.37.37 0 0 1 -.35.51h-3.82a.37.37 0 0 1 -.35-.24l-8.16-21.52a.38.38 0 0 0 -.7 0l-8.16 21.52a.39.39 0 0 1 -.37.24z"/><path d="m143.92 188.39-7.59-9.69c4.28-.81 6.79-3.7 6.79-8.14 0-5.09-3.32-8.56-9.18-8.56h-10.58a.57.57 0 0 0 -.57.56 3.61 3.61 0 0 0 3.61 3.61h7.08c3.55 0 5.24 1.81 5.24 4.43s-1.65 4.48-5.24 4.48h-10.12a.57.57 0 0 0 -.57.56v13a.38.38 0 0 0 .38.38h3.61a.38.38 0 0 0 .37-.38v-9.69h4.17l6.59 8.6a3.74 3.74 0 0 0 3 1.47h2.74a.38.38 0 0 0 .27-.63z"/><path d="m84.09 162h-16.76a.5.5 0 0 0 -.5.5 3.67 3.67 0 0 0 3.67 3.67h13.59a.38.38 0 0 0 .37-.38v-3.41a.38.38 0 0 0 -.37-.38zm0 22.83h-12.52a.37.37 0 0 1 -.38-.37v-6.77a.38.38 0 0 1 .38-.38h11.55a.37.37 0 0 0 .38-.37v-3.42a.37.37 0 0 0 -.38-.37h-15.72a.57.57 0 0 0 -.57.56v14.73a.57.57 0 0 0 .57.56h16.69a.38.38 0 0 0 .37-.38v-3.41a.38.38 0 0 0 -.37-.38z"/></g><path d="m48.34 144a12.32 12.32 0 0 0 9.35-4.28l84.42-97.93a12.32 12.32 0 0 0 -10.45-5.79 12.31 12.31 0 0 0 -9.31 4.24l-84.83 97.35a12.34 12.34 0 0 0 10.82 6.41z" fill="url(#a)"/><path d="m48.34 144a12.38 12.38 0 0 0 5.66-1.37v-81.77l65.58 78.7a12.37 12.37 0 0 0 9.49 4.44h2.59a12.35 12.35 0 0 0 12.34-12.34v-83.32a12.35 12.35 0 0 0 -12.34-12.34 12.45 12.45 0 0 0 -5.66 1.35v81.79l-65.58-78.7a12.37 12.37 0 0 0 -9.49-4.44h-2.59a12.35 12.35 0 0 0 -12.34 12.34v83.32a12.35 12.35 0 0 0 12.34 12.34z" fill="#24272a"/></svg>